<?xml version="1.0" encoding="utf-8"?>
<!-- Generator: Adobe Illustrator 22.1.0, SVG Export Plug-In . SVG Version: 6.00 Build 0)  -->
<svg version="1.1" id="game" xmlns="http://www.w3.org/2000/svg" xmlns:xlink="http://www.w3.org/1999/xlink" x="0px" y="0px"
	 viewBox="22 45 550 320" style="enable-background:new 0 0 500 500;" xml:space="preserve">
<style type="text/css">
	.st0{fill:#1D793E;}
	.st1{fill:#FFFFFF;}
	.st2{fill:#0F3134;}
	.st4{font-size:10px;margin-left:-10px;}
	.st5{fill:#C33D47;}
	.st6{opacity:0.2;fill:#BA6A7A;}
	.st7{opacity:0.2;fill:#7E242E;}
	.st8{fill:#C65864;}
	.st9{fill:#94303A;}
	.st10{fill:#5D1923;}
	.st11{fill:none;stroke:#310E10;stroke-width:0.75;stroke-miterlimit:10;}
	.st12{fill:#2096AA;}
	.st13{opacity:0.2;fill:#9DC9D3;}
	.st14{opacity:0.29;fill:#156D76;}
	.st15{fill:#166D76;}
	.st16{fill:#2A5756;}
	.st17{fill:none;stroke:#0F3134;stroke-width:0.75;stroke-miterlimit:10;}
</style>
<rect id="Grass" x="29.2" y="54.8" class="st0" width="494.9" height="301.1"/>
<path id="Lines" class="st1" d="M27.7,53.8v303.1h496.9V53.8H27.7z M276.6,163.5c22.8,0.3,41.3,18.9,41.3,41.8
	c0,22.9-18.5,41.6-41.3,41.8V163.5z M29.7,165.5H56v79.7H29.7V165.5z M29.7,246.2H57v-81.7H29.7v-47.9H106V294H29.7V246.2z
	 M275.6,247.1c-22.8-0.3-41.3-18.9-41.3-41.8c0-22.9,18.5-41.6,41.3-41.8V247.1z M275.6,162.5c-23.4,0.3-42.3,19.4-42.3,42.8
	c0,23.4,18.9,42.6,42.3,42.8v106.7H29.7V295H107v-55.4c10.8-8,17.2-20.9,17.2-34.3c0-13.5-6.4-26.3-17.2-34.3v-55.4H29.7V55.8h245.9
	V162.5z M107,238.4v-66.2c10.2,7.9,16.2,20.2,16.2,33.1C123.2,218.2,117.2,230.5,107,238.4z M522.5,245.2h-26.4v-79.7h26.4V245.2z
	 M522.5,164.5h-27.4v81.7h27.4V294h-76.4V116.6h76.4V164.5z M445.2,238.4c-10.2-7.9-16.2-20.2-16.2-33.1c0-12.9,6-25.2,16.2-33.1
	V238.4z M522.5,115.6h-77.4V171c-10.8,8-17.2,20.9-17.2,34.3c0,13.5,6.4,26.3,17.2,34.3V295h77.4v59.9h-246V248.1
	c23.4-0.3,42.3-19.4,42.3-42.8c0-23.5-18.9-42.6-42.3-42.8V55.8h246V115.6z"/>
<g id="fora_1">
	<rect x="360.95" y="142.5" class="st2" width="50" height="14.5"/>
	<text id="playerName_F1" transform="matrix(1 0 0 1 386 152)" class="st1 st4" dominant-baseline="middle" text-anchor="middle">F1</text>
	<g>
		<polygon class="st5" points="406.2,119.3 400.5,127.9 398.3,126 398.3,145.7 372.8,145.7 372.8,126 370.6,127.9 364.9,119.3 
			374.4,109.4 377.7,107.7 393.5,107.7 396.8,109.4 		"/>
		<g>
			<path class="st6" d="M377.2,116.5c0.3-3,0.5-6,0.1-8.6c-1,0.5-2,1-2.9,1.5l-9.4,9.9l5.7,8.6c0,0,2.2-1.8,2.2-1.9
				c-0.9,0.8,0,8.3,0,9.5c0,3.4,0.1,6.7,0,10.1c3.9,1,3.5-6.4,3.6-8.7c0.1-5.1,0.3-10.2,0.4-15.3C376.8,120.1,377,118.3,377.2,116.5
				z"/>
			<path class="st7" d="M396.8,109.4c0,0-2.9-1.6-2.9-1.6c-0.6,0.1-1.1,8.1-1.1,8.9c0.1,2.8,0.9,5.7,1.2,8.5c0,3.8,1.1,8,1.6,11.8
				c0.3,2,0.5,3.9,0.8,5.9c0.1,0.5,0,2,0.4,2.4c0.2,0.1,1.5,0.4,1.5,0.3c0,0,0-19.6,0-19.6l2.2,1.9l5.7-8.6L396.8,109.4z"/>
		</g>
		<path class="st8" d="M364.9,119.3c3-3.2,6.6-6.2,9-9.8c2.2,2.1,0.7,7.5,0.3,10.2c-0.4,2.8-1,6.6-3.7,8.2
			C370.1,127,364.7,119.6,364.9,119.3z"/>
		<path class="st9" d="M405.9,119.3c-3-3.2-6.6-6.2-9-9.8c-2.2,2.1-0.7,7.5-0.3,10.2c0.4,2.8,1,6.6,3.7,8.2
			C400.7,127,406.1,119.6,405.9,119.3z"/>
		<path class="st9" d="M393.8,107.9c-0.6,4.6-4,8.2-8.2,8.2c-4.2,0-7.7-3.5-8.3-8.2H393.8z"/>
		<path class="st10" d="M393.8,107.9c-0.6,4.6-4,8.2-8.2,8.2c-4.2,0-7.7-3.5-8.3-8.2h0l0.3-0.2h0.8c0,3.9,3.2,7.1,7.1,7.1
			c3.9,0,7.1-3.2,7.1-7.1h0.8L393.8,107.9z"/>
		<polygon class="st11" points="406.2,119.3 400.5,127.9 398.3,126 398.3,145.7 372.8,145.7 372.8,126 370.6,127.9 364.9,119.3 
			374.4,109.4 377.7,107.7 393.5,107.7 396.8,109.4 		"/>
	</g>
</g>
<g id="fora_2">
	<rect x="360.95" y="220" class="st2" width="50" height="14.5"/>
	<text id="playerName_F2" transform="matrix(1 0 0 1 386 230)" class="st1 st4" dominant-baseline="middle" text-anchor="middle">F2</text>
	<g>
		<polygon class="st5" points="406.2,196.8 400.5,205.4 398.3,203.5 398.3,223.2 372.8,223.2 372.8,203.5 370.6,205.4 364.9,196.8 
			374.4,186.9 377.7,185.2 393.5,185.2 396.8,186.9 		"/>
		<g>
			<path class="st6" d="M377.2,194c0.3-3,0.5-6,0.1-8.6c-1,0.5-2,1-2.9,1.5l-9.4,9.9l5.7,8.6c0,0,2.2-1.8,2.2-1.9
				c-0.9,0.8,0,8.3,0,9.5c0,3.4,0.1,6.7,0,10.1c3.9,1,3.5-6.4,3.6-8.7c0.1-5.1,0.3-10.2,0.4-15.3C376.8,197.6,377,195.8,377.2,194z"
				/>
			<path class="st7" d="M396.8,186.9c0,0-2.9-1.6-2.9-1.6c-0.6,0.1-1.1,8.1-1.1,8.9c0.1,2.8,0.9,5.7,1.2,8.5c0,3.8,1.1,8,1.6,11.8
				c0.3,2,0.5,3.9,0.8,5.9c0.1,0.5,0,2,0.4,2.4c0.2,0.1,1.5,0.4,1.5,0.3c0,0,0-19.6,0-19.6l2.2,1.9l5.7-8.6L396.8,186.9z"/>
		</g>
		<path class="st8" d="M364.9,196.8c3-3.2,6.6-6.2,9-9.8c2.2,2.1,0.7,7.5,0.3,10.2c-0.4,2.8-1,6.6-3.7,8.2
			C370.1,204.5,364.7,197.1,364.9,196.8z"/>
		<path class="st9" d="M405.9,196.8c-3-3.2-6.6-6.2-9-9.8c-2.2,2.1-0.7,7.5-0.3,10.2c0.4,2.8,1,6.6,3.7,8.2
			C400.7,204.5,406.1,197.1,405.9,196.8z"/>
		<path class="st9" d="M393.8,185.4c-0.6,4.6-4,8.2-8.2,8.2c-4.2,0-7.7-3.5-8.3-8.2H393.8z"/>
		<path class="st10" d="M393.8,185.4c-0.6,4.6-4,8.2-8.2,8.2c-4.2,0-7.7-3.5-8.3-8.2h0l0.3-0.2h0.8c0,3.9,3.2,7.1,7.1,7.1
			c3.9,0,7.1-3.2,7.1-7.1h0.8L393.8,185.4z"/>
		<polygon class="st11" points="406.2,196.8 400.5,205.4 398.3,203.5 398.3,223.2 372.8,223.2 372.8,203.5 370.6,205.4 364.9,196.8 
			374.4,186.9 377.7,185.2 393.5,185.2 396.8,186.9 		"/>
	</g>
</g>
<g id="fora_3">
	<rect x="360.95" y="297.5" class="st2" width="50" height="14.5"/>
	<text id="playerName_F3" transform="matrix(1 0 0 1 386 307)" class="st1 st4" dominant-baseline="middle" text-anchor="middle">F3</text>
	<g>
		<polygon class="st5" points="406.2,274.3 400.5,282.9 398.3,281 398.3,300.7 372.8,300.7 372.8,281 370.6,282.9 364.9,274.3 
			374.4,264.4 377.7,262.7 393.5,262.7 396.8,264.4 		"/>
		<g>
			<path class="st6" d="M377.2,271.5c0.3-3,0.5-6,0.1-8.6c-1,0.5-2,1-2.9,1.5l-9.4,9.9l5.7,8.6c0,0,2.2-1.8,2.2-1.9
				c-0.9,0.8,0,8.3,0,9.5c0,3.4,0.1,6.7,0,10.1c3.9,1,3.5-6.4,3.6-8.7c0.1-5.1,0.3-10.2,0.4-15.3C376.8,275.1,377,273.3,377.2,271.5
				z"/>
			<path class="st7" d="M396.8,264.4c0,0-2.9-1.6-2.9-1.6c-0.6,0.1-1.1,8.1-1.1,8.9c0.1,2.8,0.9,5.7,1.2,8.5c0,3.8,1.1,8,1.6,11.8
				c0.3,2,0.5,3.9,0.8,5.9c0.1,0.5,0,2,0.4,2.4c0.2,0.1,1.5,0.4,1.5,0.3c0,0,0-19.6,0-19.6l2.2,1.9l5.7-8.6L396.8,264.4z"/>
		</g>
		<path class="st8" d="M364.9,274.3c3-3.2,6.6-6.2,9-9.8c2.2,2.1,0.7,7.5,0.3,10.2c-0.4,2.8-1,6.6-3.7,8.2
			C370.1,282,364.7,274.6,364.9,274.3z"/>
		<path class="st9" d="M405.9,274.3c-3-3.2-6.6-6.2-9-9.8c-2.2,2.1-0.7,7.5-0.3,10.2c0.4,2.8,1,6.6,3.7,8.2
			C400.7,282,406.1,274.6,405.9,274.3z"/>
		<path class="st9" d="M393.8,262.9c-0.6,4.6-4,8.2-8.2,8.2c-4.2,0-7.7-3.5-8.3-8.2H393.8z"/>
		<path class="st10" d="M393.8,262.9c-0.6,4.6-4,8.2-8.2,8.2c-4.2,0-7.7-3.5-8.3-8.2h0l0.3-0.2h0.8c0,3.9,3.2,7.1,7.1,7.1
			c3.9,0,7.1-3.2,7.1-7.1h0.8L393.8,262.9z"/>
		<polygon class="st11" points="406.2,274.3 400.5,282.9 398.3,281 398.3,300.7 372.8,300.7 372.8,281 370.6,282.9 364.9,274.3 
			374.4,264.4 377.7,262.7 393.5,262.7 396.8,264.4 		"/>
	</g>
</g>
<g id="fora_4">
	<rect x="294.15" y="178.8" class="st2" width="50" height="14.5"/>
	<text id="playerName_F4" transform="matrix(1 0 0 1 319 188.5)" class="st1 st4" dominant-baseline="middle" text-anchor="middle">F4</text>
	<g>
		<polygon class="st5" points="339.6,155.7 333.9,164.3 331.7,162.4 331.7,182.1 306.2,182.1 306.2,162.4 304,164.3 298.3,155.7 
			307.8,145.8 311.1,144.1 326.9,144.1 330.2,145.8 		"/>
		<g>
			<path class="st6" d="M310.6,152.9c0.3-3,0.5-6,0.1-8.6c-1,0.5-2,1-2.9,1.5l-9.4,9.9l5.7,8.6c0,0,2.2-1.8,2.2-1.9
				c-0.9,0.8,0,8.3,0,9.5c0,3.4,0.1,6.7,0,10.1c3.9,1,3.5-6.4,3.6-8.7c0.1-5.1,0.3-10.2,0.4-15.3
				C310.2,156.5,310.4,154.7,310.6,152.9z"/>
			<path class="st7" d="M330.2,145.8c0,0-2.9-1.6-2.9-1.6c-0.6,0.1-1.1,8.1-1.1,8.9c0.1,2.8,0.9,5.7,1.2,8.5c0,3.8,1.1,8,1.6,11.8
				c0.3,2,0.5,3.9,0.8,5.9c0.1,0.5,0,2,0.4,2.4c0.2,0.1,1.5,0.4,1.5,0.3c0,0,0-19.6,0-19.6l2.2,1.9l5.7-8.6L330.2,145.8z"/>
		</g>
		<path class="st8" d="M298.3,155.7c3-3.2,6.6-6.2,9-9.8c2.2,2.1,0.7,7.5,0.3,10.2c-0.4,2.8-1,6.6-3.7,8.2
			C303.5,163.4,298.1,156,298.3,155.7z"/>
		<path class="st9" d="M339.3,155.7c-3-3.2-6.6-6.2-9-9.8c-2.2,2.1-0.7,7.5-0.3,10.2c0.4,2.8,1,6.6,3.7,8.2
			C350,163.4,339.5,156,339.3,155.7z"/>
		<path class="st9" d="M327.2,144.3c-0.6,4.6-4,8.2-8.2,8.2c-4.2,0-7.7-3.5-8.3-8.2H327.2z"/>
		<path class="st10" d="M327.2,144.3c-0.6,4.6-4,8.2-8.2,8.2c-4.2,0-7.7-3.5-8.3-8.2h0l0.3-0.2h0.8c0,3.9,3.2,7.1,7.1,7.1
			c3.9,0,7.1-3.2,7.1-7.1h0.8L327.2,144.3z"/>
		<polygon class="st11" points="339.6,155.7 333.9,164.3 331.7,162.4 331.7,182.1 306.2,182.1 306.2,162.4 304,164.3 298.3,155.7 
			307.8,145.8 311.1,144.1 326.9,144.1 330.2,145.8 		"/>
	</g>
</g>
<g id="fora_5">
	<rect x="294.15" y="252.1" class="st2" width="50" height="14.5"/>
	<text id="playerName_F5" transform="matrix(1 0 0 1 319 261.5)" class="st1 st4" dominant-baseline="middle" text-anchor="middle">F5</text>
	<g>
		<polygon class="st5" points="339.6,228.9 333.9,237.5 331.7,235.7 331.7,255.3 306.2,255.3 306.2,235.7 304,237.5 298.3,228.9 
			307.8,219.1 311.1,217.3 326.9,217.3 330.2,219.1 		"/>
		<g>
			<path class="st6" d="M310.6,226.1c0.3-3,0.5-6,0.1-8.6c-1,0.5-2,1-2.9,1.5l-9.4,9.9l5.7,8.6c0,0,2.2-1.8,2.2-1.9
				c-0.9,0.8,0,8.3,0,9.5c0,3.4,0.1,6.7,0,10.1c3.9,1,3.5-6.4,3.6-8.7c0.1-5.1,0.3-10.2,0.4-15.3
				C310.2,229.7,310.4,227.9,310.6,226.1z"/>
			<path class="st7" d="M330.2,219.1c0,0-2.9-1.6-2.9-1.6c-0.6,0.1-1.1,8.1-1.1,8.9c0.1,2.8,0.9,5.7,1.2,8.5c0,3.8,1.1,8,1.6,11.8
				c0.3,2,0.5,3.9,0.8,5.9c0.1,0.5,0,2,0.4,2.4c0.2,0.1,1.5,0.4,1.5,0.3c0,0,0-19.6,0-19.6l2.2,1.9l5.7-8.6L330.2,219.1z"/>
		</g>
		<path class="st8" d="M298.3,228.9c3-3.2,6.6-6.2,9-9.8c2.2,2.1,0.7,7.5,0.3,10.2c-0.4,2.8-1,6.6-3.7,8.2
			C303.5,236.7,298.1,229.2,298.3,228.9z"/>
		<path class="st9" d="M339.3,228.9c-3-3.2-6.6-6.2-9-9.8c-2.2,2.1-0.7,7.5-0.3,10.2c0.4,2.8,1,6.6,3.7,8.2
			C350,236.7,339.5,229.2,339.3,228.9z"/>
		<path class="st9" d="M327.2,217.5c-0.6,4.6-4,8.2-8.2,8.2c-4.2,0-7.7-3.5-8.3-8.2H327.2z"/>
		<path class="st10" d="M327.2,217.5c-0.6,4.6-4,8.2-8.2,8.2c-4.2,0-7.7-3.5-8.3-8.2h0l0.3-0.2h0.8c0,3.9,3.2,7.1,7.1,7.1
			c3.9,0,7.1-3.2,7.1-7.1h0.8L327.2,217.5z"/>
		<polygon class="st11" points="339.6,228.9 333.9,237.5 331.7,235.7 331.7,255.3 306.2,255.3 306.2,235.7 304,237.5 298.3,228.9 
			307.8,219.1 311.1,217.3 326.9,217.3 330.2,219.1 		"/>
	</g>
</g>
<g id="casa_1">
	<rect x="142.45" y="142.5" class="st2" width="50" height="14.5"/>
	<text id="playerName_C1" transform="matrix(1 0 0 1 168 152)" class="st1 st4" dominant-baseline="middle" text-anchor="middle">C1</text>
	<g>
		<polygon class="st12" points="187.9,119.4 182.2,127.9 180,126.1 180,145.7 154.6,145.7 154.6,126.1 152.4,127.9 146.7,119.4 
			156.1,109.5 159.4,107.7 175.2,107.7 178.5,109.5 		"/>
		<g>
			<path class="st13" d="M158.9,116.6c0.3-3,0.5-6,0.1-8.6c-1,0.5-2,1-2.9,1.5l-9.4,9.9l5.7,8.6c0,0,2.2-1.8,2.2-1.9
				c-0.9,0.8,0,8.3,0,9.5c0,3.4,0.1,6.7,0,10.1c3.9,1,3.5-6.4,3.6-8.7c0.1-5.1,0.3-10.2,0.4-15.3
				C158.6,120.1,158.8,118.3,158.9,116.6z"/>
			<path class="st14" d="M178.5,109.5c0,0-2.9-1.6-2.9-1.6c-0.6,0.1-1.1,8.1-1.1,8.9c0.1,2.8,0.9,5.7,1.2,8.5c0,3.8,1.1,8,1.6,11.8
				c0.3,2,0.5,3.9,0.8,5.9c0.1,0.5,0,2,0.4,2.4c0.2,0.1,1.5,0.4,1.5,0.3c0,0,0-19.6,0-19.6l2.2,1.9l5.7-8.6L178.5,109.5z"/>
		</g>
		<path class="st15" d="M146.7,119.4c3-3.2,6.6-6.2,9-9.8c2.2,2.1,0.7,7.5,0.3,10.2c-0.4,2.8-1,6.6-3.7,8.2
			C151.8,127.1,146.4,119.6,146.7,119.4z"/>
		<path class="st15" d="M187.6,119.4c-3-3.2-6.6-6.2-9-9.8c-2.2,2.1-0.7,7.5-0.3,10.2c0.4,2.8,1,6.6,3.7,8.2
			C182.5,127.1,187.9,119.6,187.6,119.4z"/>
		<path class="st15" d="M175.6,107.9c-0.6,4.6-4,8.2-8.2,8.2c-4.2,0-7.7-3.5-8.3-8.2H175.6z"/>
		<path class="st16" d="M175.6,107.9c-0.6,4.6-4,8.2-8.2,8.2c-4.2,0-7.7-3.5-8.3-8.2h0l0.3-0.2h0.8c0,3.9,3.2,7.1,7.1,7.1
			c3.9,0,7.1-3.2,7.1-7.1h0.8L175.6,107.9z"/>
		<polygon class="st17" points="187.9,119.4 182.2,127.9 180,126.1 180,145.7 154.6,145.7 154.6,126.1 152.4,127.9 146.7,119.4 
			156.1,109.5 159.4,107.7 175.2,107.7 178.5,109.5 		"/>
	</g>
</g>
<g id="casa_2">
	<rect x="142.45" y="220" class="st2" width="50" height="14.5"/>
	<text id="playerName_C2" transform="matrix(1 0 0 1 168 229.5)" class="st1 st4" dominant-baseline="middle" text-anchor="middle">C2</text>
	<g>
		<polygon class="st12" points="187.9,196.8 182.2,205.4 180,203.5 180,223.2 154.6,223.2 154.6,203.5 152.4,205.4 146.7,196.8 
			156.1,187 159.4,185.2 175.2,185.2 178.5,187 		"/>
		<g>
			<path class="st13" d="M158.9,194c0.3-3,0.5-6,0.1-8.6c-1,0.5-2,1-2.9,1.5l-9.4,9.9l5.7,8.6c0,0,2.2-1.8,2.2-1.9
				c-0.9,0.8,0,8.3,0,9.5c0,3.4,0.1,6.7,0,10.1c3.9,1,3.5-6.4,3.6-8.7c0.1-5.1,0.3-10.2,0.4-15.3C158.6,197.6,158.8,195.8,158.9,194
				z"/>
			<path class="st14" d="M178.5,187c0,0-2.9-1.6-2.9-1.6c-0.6,0.1-1.1,8.1-1.1,8.9c0.1,2.8,0.9,5.7,1.2,8.5c0,3.8,1.1,8,1.6,11.8
				c0.3,2,0.5,3.9,0.8,5.9c0.1,0.5,0,2,0.4,2.4c0.2,0.1,1.5,0.4,1.5,0.3c0,0,0-19.6,0-19.6l2.2,1.9l5.7-8.6L178.5,187z"/>
		</g>
		<path class="st15" d="M146.7,196.8c3-3.2,6.6-6.2,9-9.8c2.2,2.1,0.7,7.5,0.3,10.2c-0.4,2.8-1,6.6-3.7,8.2
			C151.8,204.6,146.4,197.1,146.7,196.8z"/>
		<path class="st15" d="M187.6,196.8c-3-3.2-6.6-6.2-9-9.8c-2.2,2.1-0.7,7.5-0.3,10.2c0.4,2.8,1,6.6,3.7,8.2
			C182.5,204.6,187.9,197.1,187.6,196.8z"/>
		<path class="st15" d="M175.6,185.4c-0.6,4.6-4,8.2-8.2,8.2c-4.2,0-7.7-3.5-8.3-8.2H175.6z"/>
		<path class="st16" d="M175.6,185.4c-0.6,4.6-4,8.2-8.2,8.2c-4.2,0-7.7-3.5-8.3-8.2h0l0.3-0.2h0.8c0,3.9,3.2,7.1,7.1,7.1
			c3.9,0,7.1-3.2,7.1-7.1h0.8L175.6,185.4z"/>
		<polygon class="st17" points="187.9,196.8 182.2,205.4 180,203.5 180,223.2 154.6,223.2 154.6,203.5 152.4,205.4 146.7,196.8 
			156.1,187 159.4,185.2 175.2,185.2 178.5,187 		"/>
	</g>
</g>
<g id="casa_3">
	<rect x="142.45" y="297.5" class="st2" width="50" height="14.5"/>
	<text id="playerName_C3" transform="matrix(1 0 0 1 168 307)" class="st1 st4" dominant-baseline="middle" text-anchor="middle">C3</text>
	<g>
		<polygon class="st12" points="187.9,274.3 182.2,282.9 180,281 180,300.7 154.6,300.7 154.6,281 152.4,282.9 146.7,274.3 
			156.1,264.4 159.4,262.7 175.2,262.7 178.5,264.4 		"/>
		<g>
			<path class="st13" d="M158.9,271.5c0.3-3,0.5-6,0.1-8.6c-1,0.5-2,1-2.9,1.5l-9.4,9.9l5.7,8.6c0,0,2.2-1.8,2.2-1.9
				c-0.9,0.8,0,8.3,0,9.5c0,3.4,0.1,6.7,0,10.1c3.9,1,3.5-6.4,3.6-8.7c0.1-5.1,0.3-10.2,0.4-15.3
				C158.6,275.1,158.8,273.3,158.9,271.5z"/>
			<path class="st14" d="M178.5,264.4c0,0-2.9-1.6-2.9-1.6c-0.6,0.1-1.1,8.1-1.1,8.9c0.1,2.8,0.9,5.7,1.2,8.5c0,3.8,1.1,8,1.6,11.8
				c0.3,2,0.5,3.9,0.8,5.9c0.1,0.5,0,2,0.4,2.4c0.2,0.1,1.5,0.4,1.5,0.3c0,0,0-19.6,0-19.6l2.2,1.9l5.7-8.6L178.5,264.4z"/>
		</g>
		<path class="st15" d="M146.7,274.3c3-3.2,6.6-6.2,9-9.8c2.2,2.1,0.7,7.5,0.3,10.2c-0.4,2.8-1,6.6-3.7,8.2
			C151.8,282,146.4,274.6,146.7,274.3z"/>
		<path class="st15" d="M187.6,274.3c-3-3.2-6.6-6.2-9-9.8c-2.2,2.1-0.7,7.5-0.3,10.2c0.4,2.8,1,6.6,3.7,8.2
			C182.5,282,187.9,274.6,187.6,274.3z"/>
		<path class="st15" d="M175.6,262.9c-0.6,4.6-4,8.2-8.2,8.2c-4.2,0-7.7-3.5-8.3-8.2H175.6z"/>
		<path class="st16" d="M175.6,262.9c-0.6,4.6-4,8.2-8.2,8.2c-4.2,0-7.7-3.5-8.3-8.2h0l0.3-0.2h0.8c0,3.9,3.2,7.1,7.1,7.1
			c3.9,0,7.1-3.2,7.1-7.1h0.8L175.6,262.9z"/>
		<polygon class="st17" points="187.9,274.3 182.2,282.9 180,281 180,300.7 154.6,300.7 154.6,281 152.4,282.9 146.7,274.3 
			156.1,264.4 159.4,262.7 175.2,262.7 178.5,264.4 		"/>
	</g>
</g>
<g id="casa_4">
	<rect x="209.65" y="178.8" class="st2" width="50" height="14.5"/>
	<text id="playerName_C4" transform="matrix(1 0 0 1 234 188)" class="st1 st4" dominant-baseline="middle" text-anchor="middle">C4</text>
	<g>
		<polygon class="st12" points="255.1,155.7 249.4,164.3 247.2,162.4 247.2,182.1 221.7,182.1 221.7,162.4 219.5,164.3 213.8,155.7 
			223.2,145.8 226.5,144.1 242.3,144.1 245.6,145.8 		"/>
		<g>
			<path class="st13" d="M226.1,152.9c0.3-3,0.5-6,0.1-8.6c-1,0.5-2,1-2.9,1.5l-9.4,9.9l5.7,8.6c0,0,2.2-1.8,2.2-1.9
				c-0.9,0.8,0,8.3,0,9.5c0,3.4,0.1,6.7,0,10.1c3.9,1,3.5-6.4,3.6-8.7c0.1-5.1,0.3-10.2,0.4-15.3
				C225.7,156.5,225.9,154.7,226.1,152.9z"/>
			<path class="st14" d="M245.6,145.8c0,0-2.9-1.6-2.9-1.6c-0.6,0.1-1.1,8.1-1.1,8.9c0.1,2.8,0.9,5.7,1.2,8.5c0,3.8,1.1,8,1.6,11.8
				c0.3,2,0.5,3.9,0.8,5.9c0.1,0.5,0,2,0.4,2.4c0.2,0.1,1.5,0.4,1.5,0.3c0,0,0-19.6,0-19.6l2.2,1.9l5.7-8.6L245.6,145.8z"/>
		</g>
		<path class="st15" d="M213.8,155.7c3-3.2,6.6-6.2,9-9.8c2.2,2.1,0.7,7.5,0.3,10.2c-0.4,2.8-1,6.6-3.7,8.2
			C218.9,163.4,213.5,156,213.8,155.7z"/>
		<path class="st15" d="M254.7,155.7c-3-3.2-6.6-6.2-9-9.8c-2.2,2.1-0.7,7.5-0.3,10.2c0.4,2.8,1,6.6,3.7,8.2
			C249.6,163.4,255,156,254.7,155.7z"/>
		<path class="st15" d="M242.7,144.3c-0.6,4.6-4,8.2-8.2,8.2c-4.2,0-7.7-3.5-8.3-8.2H242.7z"/>
		<path class="st16" d="M242.7,144.3c-0.6,4.6-4,8.2-8.2,8.2c-4.2,0-7.7-3.5-8.3-8.2h0l0.3-0.2h0.8c0,3.9,3.2,7.1,7.1,7.1
			c3.9,0,7.1-3.2,7.1-7.1h0.8L242.7,144.3z"/>
		<polygon class="st17" points="255.1,155.7 249.4,164.3 247.2,162.4 247.2,182.1 221.7,182.1 221.7,162.4 219.5,164.3 213.8,155.7 
			223.2,145.8 226.5,144.1 242.3,144.1 245.6,145.8 		"/>
	</g>
</g>
<g id="casa_5">
	<rect x="209.65" y="251.4" class="st2" width="50" height="14.5"/>
	<text id="playerName_C5" transform="matrix(1 0 0 1 234 261)" class="st1 st4" dominant-baseline="middle" text-anchor="middle">C5</text>
	<g>
		<polygon class="st12" points="255.1,228.3 249.4,236.9 247.2,235 247.2,254.7 221.7,254.7 221.7,235 219.5,236.9 213.8,228.3 
			223.2,218.4 226.5,216.7 242.3,216.7 245.6,218.4 		"/>
		<g>
			<path class="st13" d="M226.1,225.5c0.3-3,0.5-6,0.1-8.6c-1,0.5-2,1-2.9,1.5l-9.4,9.9l5.7,8.6c0,0,2.2-1.8,2.2-1.9
				c-0.9,0.8,0,8.3,0,9.5c0,3.4,0.1,6.7,0,10.1c3.9,1,3.5-6.4,3.6-8.7c0.1-5.1,0.3-10.2,0.4-15.3
				C225.7,229.1,225.9,227.3,226.1,225.5z"/>
			<path class="st14" d="M245.6,218.4c0,0-2.9-1.6-2.9-1.6c-0.6,0.1-1.1,8.1-1.1,8.9c0.1,2.8,0.9,5.7,1.2,8.5c0,3.8,1.1,8,1.6,11.8
				c0.3,2,0.5,3.9,0.8,5.9c0.1,0.5,0,2,0.4,2.4c0.2,0.1,1.5,0.4,1.5,0.3c0,0,0-19.6,0-19.6l2.2,1.9l5.7-8.6L245.6,218.4z"/>
		</g>
		<path class="st15" d="M213.8,228.3c3-3.2,6.6-6.2,9-9.8c2.2,2.1,0.7,7.5,0.3,10.2c-0.4,2.8-1,6.6-3.7,8.2
			C218.9,236,213.5,228.6,213.8,228.3z"/>
		<path class="st15" d="M254.7,228.3c-3-3.2-6.6-6.2-9-9.8c-2.2,2.1-0.7,7.5-0.3,10.2c0.4,2.8,1,6.6,3.7,8.2
			C249.6,236,255,228.6,254.7,228.3z"/>
		<path class="st15" d="M242.7,216.9c-0.6,4.6-4,8.2-8.2,8.2c-4.2,0-7.7-3.5-8.3-8.2H242.7z"/>
		<path class="st16" d="M242.7,216.9c-0.6,4.6-4,8.2-8.2,8.2c-4.2,0-7.7-3.5-8.3-8.2h0l0.3-0.2h0.8c0,3.9,3.2,7.1,7.1,7.1
			c3.9,0,7.1-3.2,7.1-7.1h0.8L242.7,216.9z"/>
		<polygon class="st17" points="255.1,228.3 249.4,236.9 247.2,235 247.2,254.7 221.7,254.7 221.7,235 219.5,236.9 213.8,228.3 
			223.2,218.4 226.5,216.7 242.3,216.7 245.6,218.4 		"/>
	</g>
</g>
</svg>
